# xmcd
#
# Track frame offsets: 
#        150
#        20293
#        33460
#        51612
#        70057
#        84362
#        102493
#        116259
#        127180
#        138983
#        155867
#        173423
#
# Disc length: 2650 seconds
#
# Revision: 0
# Processed by: cddbd v1.5.2PL0 Copyright (c) Steve Scherf et al.
# Submitted via: ExactAudioCopyFreeDBPlugin 1.0
#
DISCID=a10a580c
DTITLE=Adge Cutler and The Wurzels - Live at Royal Oak,  Zummerzet
DYEAR=1967
DGENRE=Folk, Humour
TTITLE0=Twice Daily
TTITLE1=Tanglefoot Twitch
TTITLE2=When The Common Market Comes to Stanton Drew
TTITLE3=Thee Cassen't Kill Cooch
TTITLE4=The Champion Dung Spreader
TTITLE5=Drink Up Thy Zider
TTITLE6=Pill Pill 
TTITLE7=Mabel, Mabel 
TTITLE8=The Chew Magna Cha-Cha 
TTITLE9=Hark At 'Ee Jacko'
TTITLE10=The Mixer Man's Lament 
TTITLE11=Virtute Et Industrial
EXTD=
EXTT0=
EXTT1=
EXTT2=
EXTT3=
EXTT4=
EXTT5=
EXTT6=
EXTT7=
EXTT8=
EXTT9=
EXTT10=
EXTT11=
PLAYORDER=
